<mxfile host="app.diagrams.net" agent="Mozilla/5.0 (Windows NT 10.0; Win64; x64) AppleWebKit/537.36 (KHTML, like Gecko) Chrome/132.0.0.0 Safari/537.36 Edg/132.0.0.0" version="26.0.10">
  <diagram name="Page-1" id="hMFhkkLD72M3suf6Rqfb">
    <mxGraphModel dx="2017" dy="1907" grid="1" gridSize="10" guides="1" tooltips="1" connect="1" arrows="1" fold="1" page="0" pageScale="1" pageWidth="850" pageHeight="1100" math="0" shadow="0">
      <root>
        <mxCell id="0" />
        <mxCell id="1" parent="0" />
        <mxCell id="n_eNgJ4VtVLE2QOdDC5d-11" value="" style="group" parent="1" vertex="1" connectable="0">
          <mxGeometry y="-800" width="1800" height="800" as="geometry" />
        </mxCell>
        <mxCell id="n_eNgJ4VtVLE2QOdDC5d-2" value="" style="rounded=0;whiteSpace=wrap;html=1;fillColor=#999999;" parent="n_eNgJ4VtVLE2QOdDC5d-11" vertex="1">
          <mxGeometry width="1800" height="800" as="geometry" />
        </mxCell>
        <mxCell id="F_MNVPh6SetX_DWsS55I-2" value="" style="whiteSpace=wrap;html=1;aspect=fixed;" vertex="1" parent="n_eNgJ4VtVLE2QOdDC5d-11">
          <mxGeometry x="896" y="80" width="670" height="670" as="geometry" />
        </mxCell>
        <mxCell id="F_MNVPh6SetX_DWsS55I-3" value="" style="rounded=0;whiteSpace=wrap;html=1;" vertex="1" parent="n_eNgJ4VtVLE2QOdDC5d-11">
          <mxGeometry x="880" y="40" width="690" height="730" as="geometry" />
        </mxCell>
        <mxCell id="F_MNVPh6SetX_DWsS55I-4" value="" style="rounded=0;whiteSpace=wrap;html=1;" vertex="1" parent="n_eNgJ4VtVLE2QOdDC5d-11">
          <mxGeometry x="140" y="450" width="510" height="310" as="geometry" />
        </mxCell>
        <mxCell id="F_MNVPh6SetX_DWsS55I-5" value="" style="rounded=0;whiteSpace=wrap;html=1;" vertex="1" parent="n_eNgJ4VtVLE2QOdDC5d-11">
          <mxGeometry x="140" y="248" width="510" height="167" as="geometry" />
        </mxCell>
        <mxCell id="F_MNVPh6SetX_DWsS55I-7" value="" style="rounded=0;whiteSpace=wrap;html=1;" vertex="1" parent="n_eNgJ4VtVLE2QOdDC5d-11">
          <mxGeometry x="140" y="80" width="510" height="140" as="geometry" />
        </mxCell>
        <mxCell id="F_MNVPh6SetX_DWsS55I-8" value="&lt;font style=&quot;font-size: 22px;&quot;&gt;SDEC&lt;/font&gt;" style="text;html=1;align=center;verticalAlign=middle;whiteSpace=wrap;rounded=0;" vertex="1" parent="n_eNgJ4VtVLE2QOdDC5d-11">
          <mxGeometry x="60" y="313" width="60" height="30" as="geometry" />
        </mxCell>
        <mxCell id="F_MNVPh6SetX_DWsS55I-9" value="&lt;span style=&quot;font-size: 22px;&quot;&gt;ED&lt;/span&gt;" style="text;html=1;align=center;verticalAlign=middle;whiteSpace=wrap;rounded=0;" vertex="1" parent="n_eNgJ4VtVLE2QOdDC5d-11">
          <mxGeometry x="60" y="586" width="60" height="30" as="geometry" />
        </mxCell>
        <mxCell id="F_MNVPh6SetX_DWsS55I-10" value="&lt;span style=&quot;font-size: 22px;&quot;&gt;Other&lt;/span&gt;" style="text;html=1;align=center;verticalAlign=middle;whiteSpace=wrap;rounded=0;" vertex="1" parent="n_eNgJ4VtVLE2QOdDC5d-11">
          <mxGeometry x="60" y="135" width="60" height="30" as="geometry" />
        </mxCell>
        <mxCell id="F_MNVPh6SetX_DWsS55I-11" value="&lt;span style=&quot;font-size: 22px;&quot;&gt;Wards&lt;/span&gt;" style="text;html=1;align=center;verticalAlign=middle;whiteSpace=wrap;rounded=0;" vertex="1" parent="n_eNgJ4VtVLE2QOdDC5d-11">
          <mxGeometry x="1195" y="10" width="60" height="30" as="geometry" />
        </mxCell>
      </root>
    </mxGraphModel>
  </diagram>
</mxfile>
